<?xml version="1.0" standalone="no"?>
<!DOCTYPE svg PUBLIC "-//W3C//DTD SVG 20010904//EN"
 "http://www.w3.org/TR/2001/REC-SVG-20010904/DTD/svg10.dtd">
<svg version="1.0" xmlns="http://www.w3.org/2000/svg"
 width="481.000000pt" height="468.000000pt" viewBox="0 0 481.000000 468.000000"
 preserveAspectRatio="xMidYMid meet">

<g transform="translate(0.000000,468.000000) scale(0.100000,-0.100000)"
fill="#090c26" stroke="none">
<path d="M2246 4509 c-217 -14 -470 -72 -676 -154 -635 -254 -1142 -823 -1309
-1467 -31 -121 -60 -254 -60 -278 0 -8 -5 -58 -12 -110 -14 -118 -6 -404 15
-520 19 -110 62 -291 82 -355 26 -77 124 -304 156 -358 15 -26 28 -51 28 -55
0 -10 127 -196 173 -255 65 -83 84 -104 202 -222 66 -66 144 -138 173 -160 29
-22 59 -45 66 -52 7 -7 58 -41 112 -76 133 -86 344 -187 484 -233 63 -21 124
-41 135 -45 11 -4 31 -10 45 -12 14 -3 59 -12 101 -21 274 -55 646 -50 915 14
109 26 265 75 318 101 22 10 44 19 49 19 8 0 60 26 221 108 16 8 55 32 87 54
32 21 61 38 65 38 3 0 18 10 33 23 15 12 40 31 55 42 90 64 244 208 348 326
140 159 293 406 374 607 62 150 86 234 129 442 43 207 46 584 5 764 -53 236
-77 321 -121 432 -121 304 -259 514 -494 750 -230 231 -443 374 -730 492 -138
57 -253 91 -410 123 -117 23 -126 25 -250 34 -156 11 -191 12 -309 4z m244
-213 c0 -11 -12 -14 -47 -13 -42 2 -48 -1 -51 -20 -3 -19 3 -23 42 -28 60 -9
59 -23 -1 -27 -44 -3 -48 -5 -48 -28 0 -23 4 -25 53 -28 38 -2 52 -7 52 -18 0
-12 -11 -14 -62 -8 -35 3 -66 9 -69 13 -3 3 -4 43 -1 89 l4 82 64 0 c48 0 64
-3 64 -14z m-229 -6 c21 -12 27 -64 9 -75 -7 -4 -7 -11 -2 -18 5 -7 12 -27 15
-45 6 -28 4 -33 -10 -30 -10 2 -19 12 -21 23 -6 32 -22 45 -53 45 -27 0 -29
-3 -29 -40 0 -27 -4 -40 -14 -40 -10 0 -16 23 -21 85 -4 46 -4 89 0 95 8 13
100 13 126 0z m392 -2 c13 -11 47 -139 47 -180 0 -17 -26 -6 -35 14 -14 32
-72 43 -88 17 -13 -21 -37 -26 -37 -8 0 14 83 169 91 169 3 0 13 -6 22 -12z
m-615 -20 c-3 -7 -24 -16 -47 -21 -36 -7 -42 -12 -39 -30 3 -23 12 -25 66 -13
24 6 32 4 32 -7 0 -9 -16 -18 -42 -23 -38 -8 -43 -12 -40 -34 2 -14 6 -27 8
-29 2 -2 26 1 54 6 38 8 50 7 50 -2 0 -19 -120 -40 -131 -24 -6 11 -27 104
-32 148 -1 9 14 20 38 27 53 17 88 17 83 2z m959 -54 c18 -7 38 -24 44 -37 15
-34 -5 -101 -38 -127 -28 -22 -46 -21 -109 5 l-32 13 31 86 c34 94 29 91 104
60z m-1178 -42 c19 -26 45 -59 58 -73 20 -22 21 -28 10 -37 -11 -9 -18 -8 -31
7 -15 16 -22 18 -48 9 -16 -6 -33 -21 -38 -34 -19 -48 -30 -24 -30 64 0 125
22 143 79 64z m1387 -37 c30 -14 54 -29 54 -35 0 -14 -13 -13 -61 6 -35 14
-42 15 -50 3 -13 -22 -11 -26 21 -39 33 -14 55 -36 43 -43 -4 -3 -25 3 -45 13
-38 18 -43 17 -62 -17 -4 -8 9 -20 36 -34 53 -26 51 -25 43 -38 -4 -7 -27 0
-66 19 -32 17 -59 32 -59 35 0 13 76 155 83 155 4 0 33 -11 63 -25z m-1616
-176 c0 -15 -20 -19 -38 -8 -27 17 -86 -14 -77 -41 5 -17 -11 -38 -21 -27 -3
3 -11 43 -18 91 -11 73 -11 87 2 100 13 13 23 7 83 -47 38 -33 69 -64 69 -68z
m1760 99 c0 -7 -16 -40 -36 -73 l-36 -59 29 -23 c15 -13 31 -23 36 -23 4 0 7
-7 7 -15 0 -8 -2 -15 -4 -15 -8 0 -96 52 -101 61 -6 8 28 74 67 132 20 28 38
36 38 15z m-2027 -156 l-6 -84 42 27 c52 35 68 23 21 -15 -90 -74 -107 -66
-93 45 5 41 7 77 5 80 -3 2 -20 -8 -39 -22 -25 -19 -37 -23 -45 -15 -14 14
-17 11 52 55 36 22 57 31 62 24 4 -6 4 -49 1 -95z m1258 57 c35 -6 81 -12 102
-16 41 -6 49 -19 15 -26 -17 -3 -15 -5 9 -6 17 0 40 -4 50 -7 11 -3 8 1 -7 11
l-25 16 30 -6 c17 -3 42 -9 57 -12 16 -3 25 -10 21 -16 -4 -6 2 -8 16 -4 26 7
80 -7 146 -37 28 -13 66 -29 85 -37 54 -20 193 -98 198 -111 2 -4 11 -8 19 -8
13 0 13 -2 2 -17 -13 -15 -11 -16 14 -9 15 3 27 3 27 -2 0 -5 12 -14 26 -20
23 -11 24 -14 10 -28 -23 -22 -20 -34 9 -34 18 0 23 4 19 15 -10 26 11 16 56
-25 24 -22 45 -40 48 -40 9 0 42 -44 42 -56 0 -7 6 -11 13 -9 6 2 32 -21 57
-52 25 -31 52 -63 60 -72 50 -54 55 -62 40 -72 -13 -9 -13 -10 -1 -7 8 3 22
-3 31 -12 26 -26 62 -90 51 -90 -6 0 -11 -8 -10 -17 0 -11 3 -13 6 -5 9 22 20
12 48 -43 16 -30 32 -55 37 -55 4 0 8 -8 8 -17 0 -10 11 -40 24 -68 43 -92 56
-126 56 -146 0 -13 -4 -18 -12 -13 -8 5 -9 2 -5 -10 4 -10 7 -24 7 -32 0 -23
18 -16 22 9 2 13 11 -10 22 -55 10 -42 16 -84 12 -94 -3 -9 -1 -22 4 -30 18
-21 30 -130 30 -292 1 -125 -2 -155 -14 -168 -9 -8 -16 -21 -16 -27 0 -7 4 -6
10 3 17 26 12 -41 -10 -142 -24 -107 -79 -274 -80 -241 0 16 -5 21 -15 17 -18
-7 -20 -45 -4 -61 9 -9 2 -31 -26 -89 -32 -64 -40 -74 -47 -58 -7 15 -7 14 -3
-7 3 -18 -8 -47 -40 -100 -50 -84 -119 -171 -129 -162 -3 4 -6 -3 -6 -14 0
-12 -35 -56 -85 -107 -70 -71 -90 -86 -107 -80 -17 5 -20 3 -15 -10 9 -22 -41
-67 -65 -60 -12 4 -16 1 -13 -8 4 -9 -20 -32 -65 -63 -58 -40 -74 -47 -92 -39
-27 12 -71 7 -63 -7 4 -5 17 -9 31 -9 33 0 22 -16 -24 -37 -20 -9 -41 -19 -46
-21 -5 -3 -6 2 -2 9 4 8 -1 4 -11 -8 -10 -12 -31 -25 -48 -29 -16 -4 -44 -16
-62 -26 -23 -14 -42 -18 -70 -13 -27 4 -32 3 -18 -4 19 -9 19 -9 -5 -19 -14
-5 -31 -7 -37 -5 -7 3 -13 0 -13 -6 0 -6 -17 -11 -39 -11 -22 0 -42 -4 -45 -9
-13 -21 -285 -56 -287 -37 0 6 -3 5 -6 -1 -3 -9 -33 -13 -97 -13 -107 0 -217
10 -212 19 2 3 -21 6 -52 6 -32 0 -82 8 -112 17 -30 9 -80 22 -110 28 -30 7
-62 18 -70 25 -8 7 -28 15 -44 19 -15 4 -76 30 -135 57 l-106 51 30 14 c29 14
23 14 -21 0 -13 -4 -26 -1 -34 9 -7 8 -19 15 -26 15 -8 0 -14 5 -14 10 0 6 -7
10 -15 10 -8 0 -15 7 -15 16 0 8 -4 13 -8 10 -8 -5 -62 28 -104 63 -11 9 -29
24 -41 34 -12 10 -52 48 -90 84 -54 53 -66 70 -61 87 6 18 5 19 -9 8 -10 -9
-17 -10 -22 -2 -3 5 -1 10 5 10 6 0 8 5 5 10 -4 6 -10 8 -15 5 -5 -3 -19 9
-31 27 -13 18 -30 39 -37 47 -9 10 -12 27 -9 50 6 34 5 34 -7 13 -12 -23 -12
-23 -40 18 -41 62 -131 239 -151 295 -9 28 -23 62 -32 78 -8 15 -12 27 -9 27
3 0 -1 18 -10 40 -9 22 -17 57 -17 79 -1 21 -5 37 -9 34 -5 -2 -8 2 -8 9 0 7
-7 58 -15 113 -19 133 -20 376 -2 369 11 -4 13 11 9 73 -4 66 1 98 27 196 17
65 36 126 41 135 5 9 19 45 31 80 12 34 26 62 30 62 5 0 8 3 8 8 -3 14 23 72
32 72 5 0 9 8 9 19 0 10 8 29 18 42 10 13 33 50 51 82 18 31 37 55 42 52 5 -4
9 0 9 8 0 7 9 23 20 35 11 12 20 25 20 29 0 16 81 102 93 99 7 -1 9 -1 5 1
-16 9 -7 23 15 23 18 0 19 2 7 10 -13 8 -12 10 3 10 9 0 17 4 17 10 0 5 8 6
17 3 12 -5 15 -2 10 9 -6 17 65 85 152 145 25 18 51 37 58 43 7 5 19 10 28 10
9 0 14 4 11 9 -6 9 52 41 73 41 6 0 11 4 11 9 0 4 12 7 28 5 15 -2 21 -1 14 2
-19 9 -4 24 26 24 17 0 22 3 15 8 -14 9 52 38 75 34 7 -2 24 6 38 17 31 24
180 71 274 86 14 2 50 8 80 14 30 6 69 13 85 15 61 7 304 4 366 -5z m1072
-104 c34 -32 35 -67 2 -93 -27 -21 -56 -19 -76 4 -16 20 -36 17 -53 -7 -9 -14
-21 -19 -31 -15 -12 4 -14 10 -8 19 5 6 31 40 57 75 52 68 55 68 109 17z
m-2485 -1 c14 -10 22 -24 20 -37 -2 -12 2 -21 8 -20 6 1 23 -11 38 -26 23 -24
25 -30 12 -40 -11 -9 -18 -7 -35 15 -19 24 -24 26 -46 16 -37 -17 -41 -39 -14
-68 17 -19 20 -27 11 -36 -8 -8 -15 -8 -20 -3 -75 87 -114 136 -111 139 21 21
96 76 104 76 6 0 21 -7 33 -16z m2681 -182 c3 -1 -1 -8 -7 -14 -9 -9 -20 -4
-47 22 -29 28 -36 31 -50 20 -14 -12 -12 -17 17 -47 22 -23 29 -36 22 -43 -8
-8 -21 -2 -44 20 -31 29 -34 30 -52 14 -18 -17 -18 -19 19 -56 24 -25 34 -41
27 -48 -7 -7 -26 7 -59 40 l-49 50 64 65 64 65 45 -43 c25 -23 48 -43 50 -45z
m-2859 51 c0 -5 -14 -23 -31 -41 -30 -32 -33 -62 -6 -62 7 0 26 14 42 30 20
21 32 27 39 20 7 -7 7 -13 1 -18 -6 -4 -21 -19 -34 -34 -22 -25 -22 -28 -7
-43 15 -16 18 -16 42 0 14 9 28 23 31 31 5 13 43 21 43 8 0 -11 -84 -94 -94
-94 -6 1 -40 28 -76 60 l-64 60 44 45 c40 41 70 57 70 38z m2954 -165 c51 -59
45 -108 -11 -108 -13 0 -23 -6 -23 -13 0 -8 -11 -24 -25 -37 -19 -18 -28 -21
-37 -12 -9 9 -7 17 10 35 27 29 27 39 2 62 -19 17 -30 16 -62 -7 -12 -9 -21
-9 -28 -2 -8 8 9 27 57 67 37 31 71 56 75 56 3 1 23 -18 42 -41z m-3059 -28
c61 -45 74 -74 51 -118 -29 -55 -71 -56 -143 -2 -29 23 -53 45 -53 50 0 24 25
18 71 -19 56 -44 61 -46 90 -31 33 18 21 45 -41 94 -34 25 -58 51 -55 56 10
17 24 12 80 -30z m3172 -126 c1 -5 -25 -27 -58 -49 -48 -33 -59 -44 -57 -64 6
-47 31 -48 99 -3 61 40 79 44 79 18 0 -14 -117 -86 -141 -86 -26 0 -69 50 -69
79 0 35 6 42 70 84 53 36 71 41 77 21z m-3344 -10 c3 -3 -5 -24 -19 -46 -24
-38 -25 -40 -7 -54 24 -18 31 -17 38 5 7 23 45 59 45 42 0 -7 -7 -26 -16 -43
-17 -34 -15 -39 36 -68 12 -7 12 -11 3 -21 -9 -9 -28 -2 -85 31 -40 24 -75 44
-76 46 -5 4 61 114 69 114 3 0 8 -3 12 -6z m-109 -301 c80 -40 78 -34 43 -112
-26 -60 -62 -181 -81 -277 -9 -44 -19 -90 -21 -104 -19 -90 -27 -215 -22 -355
12 -376 140 -746 357 -1034 76 -102 75 -100 70 -104 -3 -2 -36 -23 -74 -45
l-69 -41 -28 37 c-382 496 -514 1117 -370 1732 18 78 108 340 117 340 2 0 37
-17 78 -37z m3656 7 c6 -11 29 -70 51 -132 129 -365 142 -841 33 -1223 -52
-184 -151 -396 -258 -555 -41 -61 -107 -152 -121 -168 -2 -2 -16 5 -32 16 -15
11 -47 32 -71 47 l-44 26 26 32 c47 60 153 222 194 297 59 111 128 291 156
410 49 211 59 305 53 497 -3 98 -8 192 -11 208 -23 135 -63 295 -93 370 -52
136 -54 125 19 162 75 38 84 39 98 13z m-530 -2145 c19 -19 42 -35 53 -35 10
0 16 -4 12 -10 -3 -5 0 -18 7 -29 16 -26 3 -39 -24 -22 -17 11 -23 9 -44 -10
-31 -29 -41 -19 -60 60 -21 91 -3 106 56 46z m-2601 -9 c21 -22 32 -78 18 -92
-12 -12 -28 8 -22 28 9 27 -21 58 -56 58 -18 0 -36 -10 -53 -31 -32 -37 -32
-52 -4 -79 24 -22 28 -23 53 -14 15 6 15 8 0 24 -26 28 2 36 31 9 l24 -23 -32
-33 c-34 -35 -54 -43 -44 -18 4 10 -1 15 -15 15 -31 0 -69 44 -69 81 0 47 56
99 107 99 29 0 46 -7 62 -24z m121 -111 c71 -45 86 -96 34 -116 -15 -5 -24
-17 -24 -31 -1 -26 -22 -58 -39 -58 -14 0 -15 36 -1 45 19 12 10 43 -16 60
-22 14 -28 15 -35 4 -20 -36 -35 -48 -47 -40 -10 6 -2 26 35 84 26 42 49 76
51 76 1 1 20 -10 42 -24z m150 -108 c0 -8 -13 -38 -30 -68 -36 -66 -37 -76 -5
-91 31 -14 48 -1 81 64 22 43 54 65 54 38 0 -16 -59 -123 -73 -132 -40 -26
-117 15 -117 62 0 29 62 140 78 140 6 0 12 -6 12 -13z m2079 -43 c41 -52 13
-114 -51 -114 -32 0 -68 38 -68 73 0 66 78 93 119 41z m115 7 c3 -5 -1 -14 -8
-20 -16 -13 -32 2 -21 19 8 12 22 13 29 1z m-284 -93 c34 -75 36 -84 21 -91
-13 -6 -34 2 -76 32 -32 23 -62 41 -66 41 -4 0 7 -25 23 -56 22 -40 27 -59 19
-67 -13 -13 -11 -17 -58 75 -28 54 -37 80 -30 87 17 17 27 14 83 -29 29 -22
58 -40 64 -40 6 0 -3 26 -19 59 -28 55 -30 71 -9 71 5 0 27 -37 48 -82z
m-1662 5 c21 -9 25 -51 7 -79 -14 -21 -23 -25 -48 -22 -18 3 -40 8 -50 13 -13
6 -20 1 -28 -24 -6 -17 -15 -31 -19 -31 -19 0 -19 21 1 67 11 26 27 63 34 81
l14 33 38 -17 c21 -9 44 -18 51 -21z m197 -78 c36 -36 31 -107 -10 -148 -26
-27 -91 -22 -122 9 -22 22 -25 32 -20 70 6 61 38 94 89 94 28 0 46 -7 63 -25z
m1129 4 c16 -8 32 -28 42 -54 14 -37 14 -46 1 -77 -27 -65 -107 -75 -148 -18
-64 87 10 192 105 149z m-196 -51 c-3 -7 -15 -14 -29 -16 -59 -7 -67 -11 -62
-33 5 -19 11 -21 49 -16 33 3 44 1 44 -9 0 -8 -10 -14 -24 -14 -41 0 -56 -11
-56 -40 l0 -29 55 6 c77 8 71 -12 -7 -24 -35 -6 -65 -9 -67 -7 -7 7 -32 157
-27 170 8 20 130 32 124 12z m-636 -65 c10 -29 21 -71 24 -93 6 -34 4 -39 -9
-34 -9 3 -19 14 -22 25 -8 24 -85 28 -85 4 0 -8 -2 -15 -4 -15 -2 0 -11 -3
-20 -6 -23 -9 -20 5 21 95 31 67 41 81 58 79 14 -2 25 -17 37 -55z m229 37
c11 0 19 -4 19 -9 0 -6 -24 -11 -52 -13 -45 -3 -53 -6 -53 -22 0 -15 8 -21 35
-23 48 -5 62 -11 55 -23 -4 -7 -24 -8 -51 -4 -44 6 -44 6 -44 -24 0 -30 2 -31
47 -34 27 -2 48 -8 51 -16 5 -16 -115 -15 -125 2 -7 11 -6 80 3 140 l6 38 45
-6 c25 -3 54 -6 64 -6z m210 -11 c13 -13 18 -26 13 -37 -9 -21 -9 -48 1 -89 6
-27 4 -33 -9 -33 -9 0 -18 12 -22 28 -8 33 -20 42 -56 42 -26 0 -28 -3 -28
-40 0 -27 -4 -40 -14 -40 -10 0 -15 21 -18 78 -6 92 -4 100 30 105 61 9 83 6
103 -14z"/>
<path d="M2177 4273 c-13 -3 -17 -12 -15 -31 4 -32 42 -41 73 -18 37 28 -5 63
-58 49z"/>
<path d="M2617 4223 c-20 -40 -21 -40 13 -45 22 -3 25 0 22 27 -6 50 -16 55
-35 18z"/>
<path d="M2946 4202 c-16 -26 -44 -117 -38 -123 22 -19 60 -18 79 4 23 25 36
67 25 82 -12 18 -61 45 -66 37z"/>
<path d="M1770 4142 c0 -39 2 -43 22 -40 31 4 32 19 3 53 l-24 30 -1 -43z"/>
<path d="M1458 4005 c5 -42 13 -49 38 -30 18 13 18 14 -5 39 -32 34 -38 33
-33 -9z"/>
<path d="M2223 3933 c-28 -5 -30 -18 -4 -20 11 -1 22 5 25 13 3 8 4 13 3 13
-1 -1 -12 -4 -24 -6z"/>
<path d="M2448 3933 c6 -2 18 -2 25 0 6 3 1 5 -13 5 -14 0 -19 -2 -12 -5z"/>
<path d="M2895 3870 c4 -6 11 -8 16 -5 14 9 11 15 -7 15 -8 0 -12 -5 -9 -10z"/>
<path d="M3130 3760 c-8 -5 -12 -11 -10 -14 3 -2 14 2 24 10 22 15 10 19 -14
4z"/>
<path d="M2167 3703 c3 -7 6 -13 8 -13 1 0 7 6 13 13 8 10 6 13 -7 13 -11 0
-17 -6 -14 -13z"/>
<path d="M2359 3706 c-4 -4 -32 -8 -64 -10 -31 -2 -60 -8 -64 -15 -4 -6 -16
-9 -27 -5 -14 4 -15 3 -6 -4 11 -8 11 -10 0 -14 -7 -3 -17 -5 -22 -5 -18 -1
-135 -134 -157 -180 -16 -32 -25 -42 -27 -30 -2 9 -8 17 -14 17 -6 0 -8 -9 -3
-22 7 -26 8 -28 2 -85 -3 -23 -14 -57 -26 -75 -20 -29 -22 -30 -16 -8 5 21 4
22 -5 7 -6 -9 -8 -21 -5 -27 3 -5 -1 -25 -9 -44 -8 -19 -13 -43 -12 -53 2 -10
1 -12 -1 -4 -4 12 -6 12 -13 0 -7 -11 -16 -9 -47 9 -21 13 -51 28 -66 34 -24
9 -26 12 -15 27 11 14 11 14 -4 3 -14 -11 -26 -8 -77 20 -34 18 -57 34 -52 36
6 2 20 -2 33 -9 22 -11 22 -10 7 6 -10 10 -32 17 -52 17 -24 0 -61 15 -118 49
-45 27 -88 49 -96 49 -7 0 -13 4 -13 8 0 5 -10 13 -22 19 -13 6 -49 23 -81 38
-32 15 -60 25 -63 22 -6 -6 21 -62 47 -96 13 -16 16 -28 10 -40 -6 -10 -4 -25
5 -41 16 -29 19 -19 4 13 -7 14 0 10 19 -12 16 -18 27 -40 24 -48 -3 -8 0 -13
7 -11 6 2 17 -5 23 -14 9 -14 7 -21 -10 -38 -23 -21 -22 -47 2 -47 8 0 12 4 9
8 -2 4 2 10 8 12 10 4 10 6 1 6 -17 1 -17 21 0 21 7 0 32 -32 55 -72 31 -54
38 -75 30 -85 -6 -7 -16 -13 -23 -13 -7 0 -18 -7 -25 -15 -7 -8 -18 -14 -24
-14 -21 4 -46 -13 -46 -31 0 -10 13 -29 29 -43 17 -14 27 -28 23 -32 -4 -5 -2
-5 4 -2 16 9 100 -89 117 -136 4 -10 11 -15 17 -12 5 3 7 0 4 -8 -3 -8 0 -18
7 -23 8 -5 10 -3 4 7 -8 12 -6 12 8 0 9 -7 14 -17 11 -22 -3 -5 1 -6 9 -3 10
3 17 -4 21 -21 4 -14 11 -23 16 -20 6 3 14 -5 20 -19 5 -14 21 -33 35 -42 15
-10 24 -23 21 -31 -4 -9 -2 -11 6 -7 7 4 2 -6 -10 -24 -14 -19 -28 -29 -37
-25 -8 3 -15 0 -15 -6 0 -6 5 -11 11 -11 6 0 9 -7 6 -14 -4 -9 2 -17 15 -21
14 -5 17 -10 9 -18 -17 -17 -14 -50 4 -43 9 3 15 0 15 -10 0 -10 6 -13 19 -9
35 11 33 -24 -3 -60 -19 -18 -37 -30 -41 -27 -3 4 -3 -1 0 -10 8 -21 -14 -35
-27 -17 -6 10 -7 7 -3 -9 5 -18 -2 -31 -37 -62 l-43 -40 -3 -213 c-3 -179 -1
-216 12 -226 11 -9 132 -12 498 -12 266 0 478 -3 471 -5 -7 -3 -10 -11 -8 -17
3 -7 -16 -24 -41 -40 -34 -20 -50 -25 -63 -17 -15 8 -18 5 -15 -15 1 -14 -1
-23 -5 -20 -5 2 -17 -3 -27 -13 -10 -9 -32 -26 -49 -36 l-29 -19 24 -11 c14
-6 27 -13 30 -17 3 -3 33 -19 68 -34 35 -16 70 -38 78 -49 8 -11 14 -15 14 -8
0 7 9 3 21 -9 13 -13 18 -26 13 -37 -4 -9 -6 -20 -6 -24 3 -12 -13 -9 -25 3
-9 9 -11 7 -7 -7 6 -24 48 -44 90 -44 24 0 34 -5 39 -20 3 -11 11 -20 16 -20
13 0 11 18 -3 23 -25 9 0 17 53 18 44 1 65 -5 117 -33 34 -19 59 -38 55 -42
-4 -4 1 -4 11 0 15 6 17 4 11 -6 -6 -9 -4 -12 6 -8 8 3 20 0 26 -8 10 -10 3
-16 -40 -32 -28 -11 -54 -16 -57 -11 -6 8 -86 40 -99 38 -3 0 8 -7 24 -14 l30
-14 -27 -1 c-16 0 -28 -3 -28 -8 0 -4 -10 -12 -22 -17 -13 -6 -22 -18 -22 -26
3 -34 -267 -61 -412 -41 -54 7 -113 13 -131 12 -18 0 -37 6 -45 16 -7 9 -23
26 -36 39 l-23 23 21 7 c12 4 20 9 17 11 -2 3 -16 0 -30 -5 -14 -5 -38 -6 -54
-2 -20 6 -32 3 -43 -8 -21 -23 -44 -26 -36 -5 5 12 2 15 -11 10 -15 -6 -80 19
-93 36 -3 3 -17 9 -32 13 -15 4 -33 14 -40 23 -11 13 -10 15 4 9 10 -3 20 -2
23 3 3 5 -11 7 -31 5 -33 -3 -35 -2 -30 21 6 24 -7 33 -19 14 -10 -16 -25 -11
-18 6 5 13 2 15 -14 10 -12 -4 -25 -1 -33 9 -7 9 -8 15 -2 15 6 0 12 -6 15
-12 2 -7 8 -9 13 -5 11 11 -17 28 -36 22 -18 -6 -103 72 -94 86 3 5 -1 6 -9 3
-8 -3 -27 11 -46 33 -18 21 -42 49 -55 63 -49 53 -107 141 -113 170 -3 17 -8
28 -11 25 -9 -9 -53 78 -47 94 3 9 -4 5 -16 -9 -14 -17 -19 -19 -15 -7 3 9 1
17 -3 17 -5 0 -14 23 -21 50 -10 43 -16 50 -36 50 -15 0 -22 -5 -18 -13 2 -7
-8 -24 -23 -39 l-28 -25 -42 27 c-23 15 -39 31 -35 35 4 5 -1 5 -10 2 -10 -3
-20 -2 -24 4 -4 6 -11 6 -20 -2 -7 -6 -12 -14 -10 -18 2 -3 7 -28 10 -55 4
-27 11 -56 15 -64 5 -8 6 -34 3 -58 -3 -30 -1 -44 7 -44 8 0 10 8 6 20 -11 35
2 21 24 -25 11 -24 19 -50 16 -57 -5 -14 37 -38 67 -38 10 0 18 -7 18 -15 0
-9 -6 -12 -16 -8 -14 5 -14 3 -2 -16 10 -17 14 -18 16 -6 5 22 15 18 33 -14
13 -22 14 -32 5 -41 -8 -10 -7 -12 6 -7 13 4 23 -2 35 -21 10 -15 26 -33 35
-40 10 -7 18 -18 18 -23 0 -6 41 -51 91 -101 50 -50 88 -96 86 -103 -6 -13 11
-35 26 -35 5 0 6 7 3 16 -7 17 -2 15 59 -29 89 -63 150 -100 218 -134 40 -19
84 -41 99 -49 30 -16 78 -19 78 -4 0 6 9 10 20 10 31 0 70 -22 70 -40 0 -19
30 -36 75 -43 17 -3 77 -13 135 -22 126 -20 355 -15 465 11 39 9 82 17 97 17
15 1 26 4 26 7 -1 17 4 21 16 11 10 -8 16 -8 25 3 9 11 8 14 -5 12 -30 -2 -26
21 5 32 32 11 74 5 65 -9 -3 -5 -3 -9 0 -9 10 0 112 43 189 80 32 15 68 26 80
24 20 -4 20 -4 2 4 -18 8 -17 10 13 26 24 13 37 14 52 6 11 -6 20 -15 20 -20
0 -5 6 -7 13 -5 23 9 40 -10 28 -33 -16 -31 -13 -40 5 -14 9 13 22 21 30 18 8
-3 24 -1 36 4 13 5 17 9 10 9 -7 1 -20 18 -30 39 -9 20 -25 46 -35 57 -17 19
-17 20 5 30 13 5 36 25 52 43 38 43 88 79 80 58 -3 -9 -11 -16 -17 -16 -6 0
-8 -2 -5 -5 3 -3 17 1 32 9 15 8 23 17 18 20 -11 6 -5 43 8 51 14 9 41 -7 36
-21 -3 -8 -1 -14 5 -14 6 0 9 8 7 18 -1 9 1 23 5 29 6 9 3 11 -7 7 -26 -10
-18 13 14 39 16 14 30 29 30 32 0 4 16 25 35 48 19 22 35 44 35 48 0 5 12 25
26 46 20 29 31 37 50 35 20 -3 27 3 38 30 8 18 18 36 22 41 11 10 34 78 34
100 0 9 9 25 20 34 19 17 29 39 12 29 -5 -3 -5 16 -1 42 11 75 -2 80 -82 27
-57 -37 -72 -35 -90 13 -18 48 -68 11 -84 -62 -3 -16 -14 -30 -25 -33 -11 -3
-22 -14 -25 -24 -4 -10 -10 -19 -15 -19 -4 0 -11 -12 -15 -27 -8 -35 -24 -55
-38 -46 -6 3 -7 1 -3 -5 7 -12 -1 -31 -29 -67 -14 -17 -17 -18 -26 -5 -8 12
-9 10 -4 -7 4 -16 -5 -35 -37 -74 -24 -29 -50 -54 -58 -57 -12 -4 -13 -2 -2 9
6 7 12 17 12 23 0 5 -16 -7 -37 -27 -20 -20 -41 -37 -46 -37 -5 0 -4 -7 3 -15
16 -19 5 -33 -45 -60 l-37 -19 -22 25 c-49 60 -56 70 -56 76 0 4 -9 16 -20 28
l-20 22 50 32 c41 27 53 31 65 21 11 -9 15 -9 15 -1 0 6 -6 11 -12 11 -7 0 -3
8 9 18 17 12 20 21 13 32 -8 13 -10 12 -10 -4 0 -17 -2 -17 -23 5 -13 13 -21
28 -19 33 3 5 0 6 -5 3 -11 -7 -36 18 -46 46 -4 9 -14 17 -22 17 -9 0 -13 5
-10 11 5 7 40 10 96 8 48 -2 91 0 95 4 14 14 54 7 54 -8 0 -12 7 -9 27 9 l27
26 -3 165 c-2 118 1 170 9 181 10 11 10 17 1 28 -9 11 -8 18 5 31 13 12 14 16
3 15 -29 -4 -57 13 -62 36 -4 25 8 34 16 12 2 -7 8 -9 13 -5 10 9 -16 28 -31
24 -5 -2 -10 -14 -10 -28 0 -13 -7 -27 -15 -30 -12 -5 -18 8 -28 60 -13 69
-33 225 -34 274 0 16 -4 24 -8 17 -5 -8 -9 -4 -13 9 -3 12 -2 19 2 17 4 -3 6
10 4 27 -2 18 -5 48 -7 67 -2 19 -8 47 -14 61 -6 15 -7 31 -1 40 11 18 12 42
0 35 -5 -4 -11 20 -14 51 -3 50 -28 146 -52 206 -5 12 -3 17 6 15 8 -2 14 7
14 23 1 18 -3 25 -12 22 -10 -4 -11 -9 -2 -19 7 -8 9 -17 6 -20 -3 -3 -10 3
-16 14 -8 14 -7 24 4 38 19 25 19 40 0 24 -20 -16 -45 -6 -45 19 0 11 -5 23
-10 26 -6 4 -8 10 -5 15 7 11 -5 41 -14 35 -5 -2 -8 98 -9 223 -1 153 -5 228
-12 230 -6 2 -29 -17 -51 -42 -22 -25 -46 -46 -52 -46 -8 0 -7 4 1 12 17 17
15 33 -3 18 -8 -7 -15 -18 -15 -24 0 -7 -12 -17 -27 -23 l-28 -12 29 6 c22 4
27 2 24 -8 -3 -8 -11 -13 -17 -11 -6 1 -10 -1 -9 -5 3 -8 -5 -13 -23 -13 -5 0
-7 5 -3 12 4 6 3 8 -4 4 -14 -9 -72 54 -65 71 3 8 11 12 17 10 7 -3 12 3 12
12 0 16 -8 18 -65 12 -8 -1 -5 -8 10 -21 13 -10 20 -19 16 -20 -13 0 -69 40
-92 65 -22 25 -55 40 -55 25 0 -5 8 -11 18 -13 9 -2 6 -2 -8 0 -14 2 -41 7
-60 10 -19 3 -38 10 -42 16 -7 12 -139 23 -149 13z m139 -35 c2 -6 16 -11 30
-11 42 0 103 -20 109 -36 3 -8 12 -14 20 -14 21 0 93 -41 93 -53 0 -5 20 -27
45 -49 25 -22 45 -46 45 -53 0 -8 8 -20 18 -27 37 -29 95 -98 97 -115 1 -10 7
-28 14 -41 7 -12 11 -31 9 -40 -1 -9 10 -33 25 -53 15 -20 25 -43 22 -50 -3
-8 6 -27 20 -43 14 -16 26 -32 26 -35 1 -3 3 -22 5 -41 2 -19 11 -52 19 -73 9
-23 11 -36 4 -32 -6 4 -4 -6 4 -22 20 -38 33 -108 19 -100 -11 8 -1 -47 22
-112 7 -22 10 -45 5 -52 -4 -7 -3 -22 3 -32 7 -14 7 -22 -1 -27 -8 -5 -6 -21
10 -56 12 -29 23 -76 24 -114 2 -36 11 -100 19 -143 19 -95 19 -98 4 -94 -7 1
-14 -9 -15 -23 -8 -68 -15 -90 -28 -90 -9 0 -15 -17 -18 -52 -9 -88 -18 -142
-27 -158 -8 -12 -9 -12 -10 4 0 20 0 20 -14 1 -13 -18 -15 -17 -21 20 -13 76
-38 157 -51 162 -6 2 -15 20 -19 39 -5 29 -9 34 -26 29 -15 -5 -19 -2 -19 15
0 11 -7 37 -16 58 -14 31 -17 34 -23 18 -5 -14 -17 4 -46 74 -42 99 -52 104
-36 18 13 -76 0 -90 -29 -28 -13 27 -32 58 -43 67 -19 18 -20 17 -8 -5 7 -13
11 -40 9 -60 l-3 -37 -58 83 c-32 45 -60 82 -62 82 -3 0 -2 -13 2 -30 7 -38
-9 -39 -28 -2 l-13 27 -4 -32 c-2 -18 -7 -33 -13 -33 -5 0 -9 4 -9 8 0 5 -6
16 -12 25 -11 14 -13 -2 -13 -90 l0 -108 -267 -3 c-223 -2 -268 0 -268 11 0 8
23 35 50 61 48 44 62 77 40 91 -5 3 -10 1 -10 -4 0 -23 -19 -9 -22 16 -4 35
-21 39 -38 8 -20 -37 -30 -31 -27 15 2 22 0 40 -5 40 -4 0 -8 -4 -8 -10 0 -5
-5 -10 -11 -10 -7 0 -9 11 -5 30 3 17 1 30 -4 30 -6 0 -10 -5 -10 -10 0 -6
-28 -39 -63 -74 l-64 -63 1 71 c1 76 -1 78 -51 62 -20 -6 -23 -4 -23 17 0 14
-7 28 -16 31 -8 3 -13 2 -10 -3 3 -5 -4 -11 -17 -15 -37 -10 -40 -7 -22 20 17
26 17 27 -4 21 -27 -7 -27 12 -1 46 11 14 20 28 20 32 0 3 -75 94 -167 201
-93 108 -169 201 -171 208 -1 6 17 23 40 35 85 47 85 36 -4 184 -44 73 -88
145 -97 161 -9 15 -26 44 -39 63 -29 44 -23 51 20 26 18 -11 101 -56 183 -99
83 -43 195 -102 250 -132 55 -29 117 -61 137 -70 42 -19 49 -32 50 -92 0 -22
3 -40 7 -40 3 0 14 -19 24 -43 10 -23 28 -55 41 -70 l22 -28 12 66 c16 84 39
121 104 167 92 65 174 95 302 112 51 6 91 16 93 23 3 9 -4 10 -29 2 -18 -5
-53 -9 -78 -9 -25 0 -58 -7 -74 -15 -16 -8 -52 -22 -81 -30 -58 -17 -187 -103
-212 -142 -9 -13 -24 -52 -33 -85 l-17 -61 -21 35 c-12 19 -29 63 -38 99 -35
136 5 269 101 338 46 34 54 36 125 36 41 0 86 -3 100 -7 17 -5 15 -3 -6 6 -35
16 -142 27 -149 15 -3 -4 -19 -10 -35 -14 -17 -4 -30 -11 -30 -16 0 -5 -7 -9
-15 -9 -8 0 -15 -4 -15 -10 0 -5 -4 -10 -10 -10 -18 0 -10 54 15 107 29 63
103 145 162 180 63 36 176 63 248 59 33 -3 61 -9 63 -15z m262 -51 c0 -5 -2
-10 -4 -10 -3 0 -8 5 -11 10 -3 6 -1 10 4 10 6 0 11 -4 11 -10z m-1053 -1242
c-3 -8 -6 -5 -6 6 -1 11 2 17 5 13 3 -3 4 -12 1 -19z m47 -4 c9 -24 2 -26 -12
-4 -7 11 -8 20 -3 20 5 0 12 -7 15 -16z m1376 -824 c0 -4 -67 -53 -112 -81 -6
-4 15 -44 51 -95 33 -48 61 -93 61 -100 0 -14 -102 -81 -136 -90 -14 -4 -55
13 -120 48 l-99 53 113 3 112 3 0 197 0 196 65 -64 c36 -35 65 -67 65 -70z
m-570 -23 c0 -63 -3 -116 -6 -120 -10 -9 -206 93 -201 106 2 6 12 15 22 21 10
6 52 32 93 59 41 26 78 47 83 47 5 0 9 -51 9 -113z m730 -472 c17 -25 27 -45
22 -45 -5 0 -31 12 -57 27 l-47 26 23 18 c13 10 25 19 26 19 1 0 16 -20 33
-45z"/>
<path d="M2528 3406 c-27 -24 -103 -46 -158 -46 -16 0 -31 -4 -34 -9 -9 -14
28 -19 85 -10 35 6 57 5 66 -2 18 -16 43 -4 43 20 0 15 9 22 35 27 34 6 35 7
19 25 -21 24 -23 24 -56 -5z"/>
<path d="M2720 3350 c0 -5 5 -10 10 -10 6 0 10 5 10 10 0 6 -4 10 -10 10 -5 0
-10 -4 -10 -10z"/>
<path d="M2205 3320 c-11 -17 5 -32 21 -19 7 6 11 15 8 20 -7 12 -21 11 -29
-1z"/>
<path d="M2760 3220 c0 -5 5 -10 10 -10 6 0 10 5 10 10 0 6 -4 10 -10 10 -5 0
-10 -4 -10 -10z"/>
<path d="M2418 3143 c12 -2 30 -2 40 0 9 3 -1 5 -23 4 -22 0 -30 -2 -17 -4z"/>
<path d="M3010 3076 c0 -2 8 -10 18 -17 15 -13 16 -12 3 4 -13 16 -21 21 -21
13z"/>
<path d="M2780 3066 c0 -3 9 -10 20 -16 11 -6 20 -8 20 -6 0 3 -9 10 -20 16
-11 6 -20 8 -20 6z"/>
<path d="M3010 2980 c0 -5 7 -10 16 -10 8 0 12 5 9 10 -3 6 -10 10 -16 10 -5
0 -9 -4 -9 -10z"/>
<path d="M1877 2923 c-10 -10 -8 -33 2 -33 6 0 9 9 8 20 -1 23 -1 22 -10 13z"/>
<path d="M2152 2875 c0 -16 2 -22 5 -12 2 9 2 23 0 30 -3 6 -5 -1 -5 -18z"/>
<path d="M2962 2880 c0 -14 2 -19 5 -12 2 6 2 18 0 25 -3 6 -5 1 -5 -13z"/>
<path d="M1886 2866 c-22 -10 -25 -14 -13 -19 9 -3 26 3 39 13 26 22 16 24
-26 6z"/>
<path d="M2786 2810 c20 -32 29 -33 20 -2 -4 11 -14 23 -22 26 -12 5 -12 1 2
-24z"/>
<path d="M1850 2800 c0 -5 7 -10 16 -10 8 0 12 5 9 10 -3 6 -10 10 -16 10 -5
0 -9 -4 -9 -10z"/>
<path d="M1841 2746 c-18 -32 -10 -54 9 -30 9 11 10 15 3 10 -16 -9 -17 6 -1
22 6 6 9 14 7 17 -3 3 -11 -6 -18 -19z"/>
<path d="M2956 2735 c4 -8 11 -15 16 -15 6 0 5 6 -2 15 -7 8 -14 15 -16 15 -2
0 -1 -7 2 -15z"/>
<path d="M2641 2715 c0 -13 28 -50 33 -44 3 2 -4 15 -14 29 -11 14 -20 21 -19
15z"/>
<path d="M2282 2680 c0 -19 2 -27 5 -17 2 9 2 25 0 35 -3 9 -5 1 -5 -18z"/>
<path d="M2232 2640 c0 -14 2 -19 5 -12 2 6 2 18 0 25 -3 6 -5 1 -5 -13z"/>
<path d="M2905 2651 c-3 -5 -1 -12 5 -16 5 -3 10 1 10 9 0 18 -6 21 -15 7z"/>
<path d="M2061 2634 c0 -11 3 -14 6 -6 3 7 2 16 -1 19 -3 4 -6 -2 -5 -13z"/>
<path d="M2126 2601 c-4 -7 -5 -15 -2 -18 9 -9 19 4 14 18 -4 11 -6 11 -12 0z"/>
<path d="M2053 2573 c3 -13 1 -23 -4 -23 -5 0 -9 -10 -9 -22 1 -22 2 -21 16 5
11 21 12 32 4 45 -10 15 -11 14 -7 -5z"/>
<path d="M2506 2567 c3 -10 9 -15 12 -12 3 3 0 11 -7 18 -10 9 -11 8 -5 -6z"/>
<path d="M1931 2543 c-16 -34 -8 -40 13 -9 8 14 12 27 7 30 -4 3 -13 -6 -20
-21z"/>
<path d="M2335 2540 c3 -5 8 -10 11 -10 2 0 4 5 4 10 0 6 -5 10 -11 10 -5 0
-7 -4 -4 -10z"/>
<path d="M2227 2490 c3 -19 10 -39 14 -44 14 -15 10 15 -6 49 l-14 30 6 -35z"/>
<path d="M2131 2463 c0 -25 1 -26 9 -8 12 27 12 35 0 35 -5 0 -10 -12 -9 -27z"/>
<path d="M2390 2471 c0 -12 7 -29 15 -38 14 -14 15 -13 9 13 -9 39 -24 54 -24
25z"/>
<path d="M3030 2485 c0 -5 5 -17 10 -25 5 -8 10 -10 10 -5 0 6 -5 17 -10 25
-5 8 -10 11 -10 5z"/>
<path d="M2061 2464 c0 -11 3 -14 6 -6 3 7 2 16 -1 19 -3 4 -6 -2 -5 -13z"/>
<path d="M2640 2460 c0 -5 5 -10 11 -10 5 0 7 5 4 10 -3 6 -8 10 -11 10 -2 0
-4 -4 -4 -10z"/>
<path d="M2282 2440 c0 -14 2 -19 5 -12 2 6 2 18 0 25 -3 6 -5 1 -5 -13z"/>
<path d="M2830 2435 c0 -5 5 -17 10 -25 5 -8 10 -10 10 -5 0 6 -5 17 -10 25
-5 8 -10 11 -10 5z"/>
<path d="M2450 2411 c0 -6 4 -13 10 -16 6 -3 7 1 4 9 -7 18 -14 21 -14 7z"/>
<path d="M2426 2395 c4 -8 8 -15 10 -15 2 0 4 7 4 15 0 8 -4 15 -10 15 -5 0
-7 -7 -4 -15z"/>
<path d="M2191 2374 c0 -11 3 -14 6 -6 3 7 2 16 -1 19 -3 4 -6 -2 -5 -13z"/>
<path d="M2271 2374 c0 -11 3 -14 6 -6 3 7 2 16 -1 19 -3 4 -6 -2 -5 -13z"/>
<path d="M2500 2375 c0 -9 -5 -13 -11 -9 -8 4 -8 0 0 -15 7 -11 13 -21 15 -21
8 0 13 51 5 56 -5 3 -9 -2 -9 -11z"/>
<path d="M2366 2365 c-9 -26 -7 -32 5 -12 6 10 9 21 6 23 -2 3 -7 -2 -11 -11z"/>
<path d="M2787 2359 c4 -13 8 -18 11 -10 2 7 -1 18 -6 23 -8 8 -9 4 -5 -13z"/>
<path d="M2386 2351 c-4 -7 -5 -15 -2 -18 9 -9 19 4 14 18 -4 11 -6 11 -12 0z"/>
<path d="M2341 2307 c-13 -21 -12 -21 5 -5 10 10 16 20 13 22 -3 3 -11 -5 -18
-17z"/>
<path d="M2173 2304 c-3 -8 -1 -20 6 -27 8 -8 11 -4 11 16 0 30 -7 35 -17 11z"/>
<path d="M3041 2255 l2 -70 7 60 c5 34 4 64 -1 70 -5 5 -8 -18 -8 -60z"/>
<path d="M2286 2294 c-4 -9 -4 -19 -1 -22 2 -3 7 3 11 12 4 9 4 19 1 22 -2 3
-7 -3 -11 -12z"/>
<path d="M2178 2220 c-3 -16 -1 -30 4 -30 4 0 8 14 8 30 0 17 -2 30 -4 30 -2
0 -6 -13 -8 -30z"/>
<path d="M3011 2214 c0 -11 3 -14 6 -6 3 7 2 16 -1 19 -3 4 -6 -2 -5 -13z"/>
<path d="M2130 2209 c0 -5 5 -7 10 -4 6 3 10 8 10 11 0 2 -4 4 -10 4 -5 0 -10
-5 -10 -11z"/>
<path d="M3031 2134 c0 -11 3 -14 6 -6 3 7 2 16 -1 19 -3 4 -6 -2 -5 -13z"/>
<path d="M3111 1994 c0 -11 3 -14 6 -6 3 7 2 16 -1 19 -3 4 -6 -2 -5 -13z"/>
<path d="M2557 3699 c7 -7 15 -10 18 -7 3 3 -2 9 -12 12 -14 6 -15 5 -6 -5z"/>
<path d="M2900 3655 c0 -8 9 -15 20 -15 13 0 18 5 14 15 -4 8 -12 15 -20 15
-8 0 -14 -7 -14 -15z"/>
<path d="M3030 3559 c0 -11 4 -18 10 -14 5 3 7 12 3 20 -7 21 -13 19 -13 -6z"/>
<path d="M2010 3548 c0 -7 4 -19 9 -26 6 -10 13 -6 26 15 l18 28 -23 -20 c-20
-17 -23 -18 -17 -2 4 9 2 17 -3 17 -6 0 -10 -6 -10 -12z"/>
<path d="M3460 3549 c0 -5 5 -7 10 -4 6 3 10 8 10 11 0 2 -4 4 -10 4 -5 0 -10
-5 -10 -11z"/>
<path d="M3470 3520 c0 -5 5 -10 10 -10 6 0 10 5 10 10 0 6 -4 10 -10 10 -5 0
-10 -4 -10 -10z"/>
<path d="M1950 3490 c0 -5 5 -10 10 -10 6 0 10 5 10 10 0 6 -4 10 -10 10 -5 0
-10 -4 -10 -10z"/>
<path d="M1435 3420 c-3 -6 1 -7 9 -4 18 7 21 14 7 14 -6 0 -13 -4 -16 -10z"/>
<path d="M1160 3404 c0 -7 8 -10 20 -7 11 3 20 8 20 12 0 4 -9 7 -20 7 -11 0
-20 -6 -20 -12z"/>
<path d="M1926 3384 c-5 -14 -4 -15 9 -4 17 14 19 20 6 20 -5 0 -12 -7 -15
-16z"/>
<path d="M1217 3373 c-10 -9 -9 -23 2 -23 5 0 11 7 15 15 5 15 -5 20 -17 8z"/>
<path d="M1535 3370 c-19 -8 -19 -9 3 -9 12 -1 22 4 22 9 0 6 -1 10 -2 9 -2 0
-12 -4 -23 -9z"/>
<path d="M1823 3203 c-10 -4 -9 -8 1 -19 18 -18 26 -18 26 0 0 18 -11 25 -27
19z"/>
<path d="M3767 3195 c3 -8 9 -12 14 -9 12 7 11 11 -5 17 -10 4 -13 1 -9 -8z"/>
<path d="M3820 3111 c0 -5 5 -13 10 -16 6 -3 10 -2 10 4 0 5 -4 13 -10 16 -5
3 -10 2 -10 -4z"/>
<path d="M1005 3090 c-3 -5 -1 -10 4 -10 6 0 11 5 11 10 0 6 -2 10 -4 10 -3 0
-8 -4 -11 -10z"/>
<path d="M1350 3050 c-9 -6 -10 -10 -3 -10 6 0 15 5 18 10 8 12 4 12 -15 0z"/>
<path d="M907 3016 c-4 -10 -5 -21 -2 -24 9 -9 17 6 13 25 -3 17 -4 17 -11 -1z"/>
<path d="M871 2966 c-9 -10 -8 -15 4 -20 10 -4 15 1 15 14 0 24 -4 25 -19 6z"/>
<path d="M3868 2933 c6 -2 18 -2 25 0 6 3 1 5 -13 5 -14 0 -19 -2 -12 -5z"/>
<path d="M1385 2810 c4 -6 11 -8 16 -5 14 9 11 15 -7 15 -8 0 -12 -5 -9 -10z"/>
<path d="M825 2781 c-3 -5 -1 -12 5 -16 5 -3 10 1 10 9 0 18 -6 21 -15 7z"/>
<path d="M1487 2673 c-4 -3 -7 -11 -7 -17 0 -6 5 -5 12 2 6 6 9 14 7 17 -3 3
-9 2 -12 -2z"/>
<path d="M765 2627 c-4 -10 -5 -21 -1 -24 10 -10 18 4 13 24 -4 17 -4 17 -12
0z"/>
<path d="M1440 2622 c0 -12 4 -22 9 -22 10 0 9 26 -2 36 -4 4 -7 -2 -7 -14z"/>
<path d="M1604 2534 c3 -9 6 -17 6 -20 0 -2 7 -1 15 2 12 5 13 10 4 20 -16 19
-33 18 -25 -2z"/>
<path d="M751 2535 c1 -19 18 -51 18 -35 0 8 -4 22 -9 30 -5 8 -9 11 -9 5z"/>
<path d="M4031 2454 c0 -11 3 -14 6 -6 3 7 2 16 -1 19 -3 4 -6 -2 -5 -13z"/>
<path d="M1625 2421 c-3 -6 1 -21 10 -33 16 -23 16 -23 9 7 -8 37 -10 39 -19
26z"/>
<path d="M3242 2385 c0 -16 2 -22 5 -12 2 9 2 23 0 30 -3 6 -5 -1 -5 -18z"/>
<path d="M4032 2385 c0 -16 2 -22 5 -12 2 9 2 23 0 30 -3 6 -5 -1 -5 -18z"/>
<path d="M1653 2343 c-18 -6 -16 -23 1 -23 17 0 30 16 19 23 -5 2 -14 2 -20 0z"/>
<path d="M1600 2310 c0 -13 5 -18 15 -14 12 5 13 10 4 20 -15 19 -19 18 -19
-6z"/>
<path d="M743 2230 c0 -30 2 -43 4 -27 2 15 2 39 0 55 -2 15 -4 2 -4 -28z"/>
<path d="M1475 2271 c-6 -11 9 -23 19 -14 9 9 7 23 -3 23 -6 0 -12 -4 -16 -9z"/>
<path d="M3272 2258 c5 -15 28 -23 28 -10 0 5 -7 13 -16 16 -10 4 -14 1 -12
-6z"/>
<path d="M4001 2104 c0 -11 3 -14 6 -6 3 7 2 16 -1 19 -3 4 -6 -2 -5 -13z"/>
<path d="M752 2090 c0 -14 2 -19 5 -12 2 6 2 18 0 25 -3 6 -5 1 -5 -13z"/>
<path d="M1531 2094 c0 -11 3 -14 6 -6 3 7 2 16 -1 19 -3 4 -6 -2 -5 -13z"/>
<path d="M781 1914 c0 -11 3 -14 6 -6 3 7 2 16 -1 19 -3 4 -6 -2 -5 -13z"/>
<path d="M1015 1870 c-3 -5 -1 -10 4 -10 6 0 11 5 11 10 0 6 -2 10 -4 10 -3 0
-8 -4 -11 -10z"/>
<path d="M3720 1865 c0 -8 8 -11 20 -8 30 8 32 18 4 19 -14 1 -24 -4 -24 -11z"/>
<path d="M1070 1860 c0 -5 5 -10 11 -10 5 0 7 5 4 10 -3 6 -8 10 -11 10 -2 0
-4 -4 -4 -10z"/>
<path d="M923 1780 c0 -30 2 -43 4 -27 2 15 2 39 0 55 -2 15 -4 2 -4 -28z"/>
<path d="M3940 1790 c0 -5 5 -10 10 -10 6 0 10 5 10 10 0 6 -4 10 -10 10 -5 0
-10 -4 -10 -10z"/>
<path d="M1260 1771 c0 -5 5 -13 10 -16 6 -3 10 -2 10 4 0 5 -4 13 -10 16 -5
3 -10 2 -10 -4z"/>
<path d="M3840 1730 c0 -5 5 -10 10 -10 6 0 10 5 10 10 0 6 -4 10 -10 10 -5 0
-10 -4 -10 -10z"/>
<path d="M864 1684 c-3 -19 -3 -39 2 -44 5 -5 10 10 11 36 2 53 -4 57 -13 8z"/>
<path d="M3350 1701 c-13 -26 -13 -31 5 -31 9 0 15 9 15 25 0 30 -6 32 -20 6z"/>
<path d="M1318 1655 c2 -14 6 -25 8 -25 2 0 4 11 4 25 0 14 -4 25 -9 25 -4 0
-6 -11 -3 -25z"/>
<path d="M3880 1650 c0 -11 4 -20 9 -20 5 0 7 9 4 20 -3 11 -7 20 -9 20 -2 0
-4 -9 -4 -20z"/>
<path d="M3844 1633 c1 -19 5 -28 10 -23 6 6 5 18 -1 32 -10 21 -10 21 -9 -9z"/>
<path d="M2280 1627 c0 -19 10 -27 25 -20 17 6 8 33 -11 33 -8 0 -14 -6 -14
-13z"/>
<path d="M3800 1625 c0 -8 5 -15 10 -15 6 0 10 7 10 15 0 8 -4 15 -10 15 -5 0
-10 -7 -10 -15z"/>
<path d="M3385 1620 c-7 -12 2 -30 16 -30 5 0 9 9 9 20 0 21 -15 27 -25 10z"/>
<path d="M936 1611 c-4 -7 -5 -15 -2 -18 9 -9 19 4 14 18 -4 11 -6 11 -12 0z"/>
<path d="M1360 1611 c0 -6 4 -13 10 -16 6 -3 7 1 4 9 -7 18 -14 21 -14 7z"/>
<path d="M2360 1610 c0 -5 7 -7 15 -4 8 4 15 8 15 10 0 2 -7 4 -15 4 -8 0 -15
-4 -15 -10z"/>
<path d="M3361 1584 c0 -11 3 -14 6 -6 3 7 2 16 -1 19 -3 4 -6 -2 -5 -13z"/>
<path d="M3826 1575 c-3 -8 -1 -15 4 -15 6 0 10 7 10 15 0 8 -2 15 -4 15 -2 0
-6 -7 -10 -15z"/>
<path d="M946 1563 c-6 -14 -5 -15 5 -6 7 7 10 15 7 18 -3 3 -9 -2 -12 -12z"/>
<path d="M980 1520 c0 -5 5 -10 10 -10 6 0 10 5 10 10 0 6 -4 10 -10 10 -5 0
-10 -4 -10 -10z"/>
<path d="M3673 1492 c-8 -5 -8 -12 3 -26 15 -22 15 -21 19 12 2 23 -2 26 -22
14z"/>
<path d="M3728 1483 c7 -3 16 -2 19 1 4 3 -2 6 -13 5 -11 0 -14 -3 -6 -6z"/>
<path d="M984 1458 c9 -12 17 -32 17 -43 1 -14 3 -15 6 -4 5 21 -14 69 -27 69
-7 0 -5 -9 4 -22z"/>
<path d="M1466 1471 c-5 -8 40 -9 47 -1 3 3 -6 6 -19 6 -13 1 -26 -1 -28 -5z"/>
<path d="M1560 1470 c0 -5 5 -10 10 -10 6 0 10 5 10 10 0 6 -4 10 -10 10 -5 0
-10 -4 -10 -10z"/>
<path d="M3073 1466 c-16 -19 -4 -29 13 -11 8 7 14 16 14 19 0 10 -15 6 -27
-8z"/>
<path d="M1553 1413 c-7 -2 -13 -9 -13 -14 0 -6 4 -8 9 -5 5 4 7 -3 4 -14 -3
-11 -1 -20 5 -20 5 0 12 10 16 23 10 39 8 42 -21 30z"/>
<path d="M3720 1410 c0 -5 5 -10 10 -10 6 0 10 5 10 10 0 6 -4 10 -10 10 -5 0
-10 -4 -10 -10z"/>
<path d="M3626 1403 c-12 -12 -6 -33 9 -33 8 0 15 6 15 14 0 17 -14 28 -24 19z"/>
<path d="M3115 1379 c-10 -15 3 -25 16 -12 7 7 7 13 1 17 -6 3 -14 1 -17 -5z"/>
<path d="M1130 1365 c0 -8 5 -15 10 -15 6 0 10 7 10 15 0 8 -4 15 -10 15 -5 0
-10 -7 -10 -15z"/>
<path d="M2446 1372 c-13 -12 -5 -22 19 -22 14 0 25 4 25 9 0 10 -36 21 -44
13z"/>
<path d="M3681 1344 c0 -11 3 -14 6 -6 3 7 2 16 -1 19 -3 4 -6 -2 -5 -13z"/>
<path d="M1150 1330 c0 -5 5 -10 10 -10 6 0 10 5 10 10 0 6 -4 10 -10 10 -5 0
-10 -4 -10 -10z"/>
<path d="M3590 1320 c0 -6 7 -10 15 -10 8 0 15 2 15 4 0 2 -7 6 -15 10 -8 3
-15 1 -15 -4z"/>
<path d="M1256 1283 c5 -5 12 -12 16 -18 4 -6 8 -2 8 8 0 9 -7 17 -17 17 -9 0
-12 -3 -7 -7z"/>
<path d="M3591 1234 c0 -11 3 -14 6 -6 3 7 2 16 -1 19 -3 4 -6 -2 -5 -13z"/>
<path d="M2810 1222 c0 -12 19 -26 26 -19 2 2 -2 10 -11 17 -9 8 -15 8 -15 2z"/>
<path d="M2796 1197 c3 -10 9 -15 12 -12 3 3 0 11 -7 18 -10 9 -11 8 -5 -6z"/>
<path d="M2847 1169 c7 -7 15 -10 18 -7 3 3 -2 9 -12 12 -14 6 -15 5 -6 -5z"/>
<path d="M1250 1156 c0 -2 7 -9 15 -16 13 -11 14 -10 9 4 -5 14 -24 23 -24 12z"/>
<path d="M2667 1139 c-10 -11 -16 -24 -13 -27 6 -6 35 27 36 41 0 11 -4 9 -23
-14z"/>
<path d="M2830 1150 c0 -5 5 -10 11 -10 5 0 7 5 4 10 -3 6 -8 10 -11 10 -2 0
-4 -4 -4 -10z"/>
<path d="M3362 1148 c6 -16 36 -34 44 -25 9 9 -15 37 -33 37 -8 0 -13 -5 -11
-12z"/>
<path d="M2100 1120 c0 -5 5 -10 10 -10 6 0 10 5 10 10 0 6 -4 10 -10 10 -5 0
-10 -4 -10 -10z"/>
<path d="M1310 1099 c0 -5 5 -7 10 -4 6 3 10 8 10 11 0 2 -4 4 -10 4 -5 0 -10
-5 -10 -11z"/>
<path d="M1460 1101 c0 -10 19 -25 25 -20 1 2 -3 10 -11 17 -8 7 -14 8 -14 3z"/>
<path d="M2115 1080 c-3 -5 1 -10 9 -10 9 0 16 5 16 10 0 6 -4 10 -9 10 -6 0
-13 -4 -16 -10z"/>
<path d="M2580 1080 c0 -5 4 -10 9 -10 6 0 13 5 16 10 3 6 -1 10 -9 10 -9 0
-16 -4 -16 -10z"/>
<path d="M1385 1061 c-3 -6 4 -9 15 -8 11 1 20 5 20 9 0 11 -28 10 -35 -1z"/>
<path d="M1440 1040 c0 -5 5 -10 10 -10 6 0 10 5 10 10 0 6 -4 10 -10 10 -5 0
-10 -4 -10 -10z"/>
<path d="M1530 1040 c8 -5 20 -10 25 -10 6 0 3 5 -5 10 -8 5 -19 10 -25 10 -5
0 -3 -5 5 -10z"/>
<path d="M3335 1040 c3 -5 8 -10 11 -10 2 0 4 5 4 10 0 6 -5 10 -11 10 -5 0
-7 -4 -4 -10z"/>
<path d="M3190 1019 c0 -5 5 -7 10 -4 6 3 10 1 10 -5 0 -6 5 -8 11 -4 8 4 7 9
-2 15 -19 12 -29 11 -29 -2z"/>
<path d="M1640 970 c0 -5 5 -10 10 -10 6 0 10 5 10 10 0 6 -4 10 -10 10 -5 0
-10 -4 -10 -10z"/>
<path d="M1681 957 c2 -1 12 -9 22 -16 15 -12 17 -12 11 3 -3 9 -13 16 -22 16
-8 0 -13 -1 -11 -3z"/>
<path d="M1615 940 c-3 -5 -1 -10 4 -10 6 0 11 5 11 10 0 6 -2 10 -4 10 -3 0
-8 -4 -11 -10z"/>
<path d="M3115 935 c-16 -8 -25 -14 -18 -15 6 0 17 -2 25 -5 7 -3 19 4 26 15
14 23 9 24 -33 5z"/>
<path d="M1663 918 c-20 -10 -32 -28 -18 -28 12 0 55 24 55 32 0 10 -9 9 -37
-4z"/>
<path d="M2923 855 c0 -8 6 -15 14 -15 7 0 13 7 13 15 0 8 -6 15 -13 15 -8 0
-14 -7 -14 -15z"/>
<path d="M1920 840 c-8 -5 -11 -12 -7 -16 4 -4 15 0 24 9 18 18 8 23 -17 7z"/>
<path d="M3048 843 c7 -3 16 -2 19 1 4 3 -2 6 -13 5 -11 0 -14 -3 -6 -6z"/>
<path d="M2088 803 c7 -3 16 -2 19 1 4 3 -2 6 -13 5 -11 0 -14 -3 -6 -6z"/>
<path d="M2832 801 c-11 -7 -11 -9 0 -13 18 -7 39 2 32 13 -6 11 -15 11 -32 0z"/>
<path d="M3015 800 c-3 -5 3 -10 14 -10 12 0 21 5 21 10 0 6 -6 10 -14 10 -8
0 -18 -4 -21 -10z"/>
<path d="M2477 769 c7 -7 15 -10 18 -7 3 3 -2 9 -12 12 -14 6 -15 5 -6 -5z"/>
<path d="M2575 770 c4 -6 11 -8 16 -5 14 9 11 15 -7 15 -8 0 -12 -5 -9 -10z"/>
<path d="M2637 772 c-3 -4 15 -8 39 -9 24 -1 44 3 44 8 0 11 -77 12 -83 1z"/>
<path d="M2558 663 c7 -3 16 -2 19 1 4 3 -2 6 -13 5 -11 0 -14 -3 -6 -6z"/>
<path d="M3584 3835 c-16 -24 -16 -27 2 -40 22 -17 50 -19 59 -5 10 16 -3 44
-25 57 -17 11 -22 10 -36 -12z"/>
<path d="M1102 3817 c-26 -28 -27 -40 -6 -57 13 -11 19 -9 42 13 21 22 25 31
16 44 -16 26 -28 26 -52 0z"/>
<path d="M3875 3540 c-17 -19 -17 -21 10 -45 29 -28 43 -28 59 -2 8 12 5 22
-14 42 -28 30 -32 31 -55 5z"/>
<path d="M3685 933 c3 -10 9 -30 12 -45 6 -31 15 -35 33 -13 10 12 8 20 -12
44 -26 33 -44 40 -33 14z"/>
<path d="M1212 808 c-27 -27 0 -67 44 -68 34 0 37 28 7 56 -30 27 -34 29 -51
12z"/>
<path d="M3393 664 c-3 -8 0 -27 6 -40 9 -20 17 -25 39 -22 51 6 38 78 -15 78
-13 0 -26 -7 -30 -16z"/>
<path d="M1570 581 c-15 -29 -13 -37 15 -49 19 -9 27 -8 40 4 20 21 19 30 -7
48 -29 21 -35 20 -48 -3z"/>
<path d="M1759 517 c-61 -47 -38 -141 31 -128 24 4 50 44 50 78 0 26 -6 36
-30 48 -34 18 -31 18 -51 2z"/>
<path d="M2892 498 c-19 -19 -14 -82 8 -106 57 -60 121 21 74 93 -18 27 -61
34 -82 13z"/>
<path d="M2081 399 c-16 -45 -14 -49 15 -49 22 0 25 3 20 23 -3 12 -6 30 -6
40 0 28 -17 20 -29 -14z"/>
<path d="M2480 400 c0 -25 4 -30 23 -30 31 0 67 27 61 45 -4 10 -20 15 -45 15
-37 0 -39 -2 -39 -30z"/>
</g>
</svg>
